<?xml version="1.0" encoding="UTF-8"?>
<svg width="140px" height="132px" viewBox="0 0 140 132" version="1.1" xmlns="http://www.w3.org/2000/svg" xmlns:xlink="http://www.w3.org/1999/xlink">
    <!-- Generator: Sketch 39.1 (31720) - http://www.bohemiancoding.com/sketch -->
    <title>Group 2</title>
    <desc>Created with Sketch.</desc>
    <defs></defs>
    <g id="Gfx" stroke="none" stroke-width="1" fill="none" fill-rule="evenodd">
        <g id="Desktop-HD-Copy" transform="translate(-519.000000, -146.000000)" fill="#A6D5FF">
            <g id="Group-2" transform="translate(519.000000, 146.000000)">
                <circle id="Oval-3" cx="10" cy="130" r="2"></circle>
                <circle id="Oval-3" cx="10" cy="90" r="2"></circle>
                <circle id="Oval-3" cx="2" cy="106" r="2"></circle>
                <circle id="Oval-3" cx="2" cy="122" r="2"></circle>
                <circle id="Oval-3" cx="2" cy="98" r="2"></circle>
                <circle id="Oval-3" cx="2" cy="114" r="2"></circle>
                <circle id="Oval-3" cx="18" cy="130" r="2"></circle>
                <circle id="Oval-3" cx="18" cy="82" r="2"></circle>
                <circle id="Oval-3" cx="26" cy="130" r="2"></circle>
                <circle id="Oval-3" cx="26" cy="82" r="2"></circle>
                <circle id="Oval-3" cx="34" cy="130" r="2"></circle>
                <circle id="Oval-3" cx="42" cy="130" r="2"></circle>
                <circle id="Oval-3" cx="42" cy="74" r="2"></circle>
                <circle id="Oval-3" cx="34" cy="74" r="2"></circle>
                <circle id="Oval-3" cx="50" cy="130" r="2"></circle>
                <circle id="Oval-3" cx="50" cy="74" r="2"></circle>
                <circle id="Oval-3" cx="42" cy="50" r="2"></circle>
                <circle id="Oval-3" cx="42" cy="42" r="2"></circle>
                <circle id="Oval-3" cx="58" cy="130" r="2"></circle>
                <circle id="Oval-3" cx="58" cy="74" r="2"></circle>
                <circle id="Oval-3" cx="58" cy="66" r="2"></circle>
                <circle id="Oval-3" cx="66" cy="130" r="2"></circle>
                <circle id="Oval-3" cx="42" cy="34" r="2"></circle>
                <circle id="Oval-3" cx="42" cy="26" r="2"></circle>
                <circle id="Oval-3" cx="50" cy="10" r="2"></circle>
                <circle id="Oval-3" cx="42" cy="18" r="2"></circle>
                <circle id="Oval-3" cx="58" cy="2" r="2"></circle>
                <circle id="Oval-3" cx="66" cy="2" r="2"></circle>
                <circle id="Oval-3" cx="50" cy="58" r="2"></circle>
                <circle id="Oval-3" cx="130" cy="130" r="2"></circle>
                <circle id="Oval-3" cx="130" cy="90" r="2"></circle>
                <circle id="Oval-3" cx="138" cy="106" r="2"></circle>
                <circle id="Oval-3" cx="138" cy="122" r="2"></circle>
                <circle id="Oval-3" cx="138" cy="98" r="2"></circle>
                <circle id="Oval-3" cx="138" cy="114" r="2"></circle>
                <circle id="Oval-3" cx="122" cy="130" r="2"></circle>
                <circle id="Oval-3" cx="122" cy="82" r="2"></circle>
                <circle id="Oval-3" cx="114" cy="130" r="2"></circle>
                <circle id="Oval-3" cx="114" cy="82" r="2"></circle>
                <circle id="Oval-3" cx="106" cy="130" r="2"></circle>
                <circle id="Oval-3" cx="98" cy="130" r="2"></circle>
                <circle id="Oval-3" cx="98" cy="74" r="2"></circle>
                <circle id="Oval-3" cx="106" cy="74" r="2"></circle>
                <circle id="Oval-3" cx="90" cy="130" r="2"></circle>
                <circle id="Oval-3" cx="90" cy="74" r="2"></circle>
                <circle id="Oval-3" cx="98" cy="50" r="2"></circle>
                <circle id="Oval-3" cx="98" cy="42" r="2"></circle>
                <circle id="Oval-3" cx="82" cy="130" r="2"></circle>
                <circle id="Oval-3" cx="82" cy="74" r="2"></circle>
                <circle id="Oval-3" cx="82" cy="66" r="2"></circle>
                <circle id="Oval-3" cx="74" cy="130" r="2"></circle>
                <circle id="Oval-3" cx="98" cy="34" r="2"></circle>
                <circle id="Oval-3" cx="98" cy="26" r="2"></circle>
                <circle id="Oval-3" cx="90" cy="10" r="2"></circle>
                <circle id="Oval-3" cx="98" cy="18" r="2"></circle>
                <circle id="Oval-3" cx="82" cy="2" r="2"></circle>
                <circle id="Oval-3" cx="74" cy="2" r="2"></circle>
                <circle id="Oval-3" cx="90" cy="58" r="2"></circle>
            </g>
        </g>
    </g>
</svg>