<?xml version="1.0" encoding="UTF-8"?>
<svg width="108px" height="140px" viewBox="0 0 108 140" version="1.1" xmlns="http://www.w3.org/2000/svg" xmlns:xlink="http://www.w3.org/1999/xlink">
    <!-- Generator: Sketch 39.1 (31720) - http://www.bohemiancoding.com/sketch -->
    <title>Group-3-Copy</title>
    <desc>Created with Sketch.</desc>
    <defs></defs>
    <g id="Page-1" stroke="none" stroke-width="1" fill="none" fill-rule="evenodd">
        <g id="Artboard" transform="translate(-38.000000, -5.000000)" fill="#CBC4FD">
            <g id="Group-3-Copy" transform="translate(38.000000, 5.000000)">
                <g>
                    <circle id="Oval-3" cx="2" cy="74" r="2"></circle>
                    <circle id="Oval-3" cx="2" cy="106" r="2"></circle>
                    <circle id="Oval-3" cx="2" cy="122" r="2"></circle>
                    <circle id="Oval-3" cx="2" cy="50" r="2"></circle>
                    <circle id="Oval-3" cx="2" cy="90" r="2"></circle>
                    <circle id="Oval-3" cx="2" cy="130" r="2"></circle>
                    <circle id="Oval-3" cx="2" cy="66" r="2"></circle>
                    <circle id="Oval-3-Copy" cx="2" cy="58" r="2"></circle>
                    <circle id="Oval-3" cx="2" cy="98" r="2"></circle>
                    <circle id="Oval-3" cx="2" cy="114" r="2"></circle>
                    <circle id="Oval-3" cx="2" cy="82" r="2"></circle>
                    <circle id="Oval-3" cx="2" cy="138" r="2"></circle>
                    <circle id="Oval-3" cx="10" cy="138" r="2"></circle>
                    <circle id="Oval-3" cx="18" cy="74" r="2"></circle>
                    <circle id="Oval-3" cx="18" cy="90" r="2"></circle>
                    <circle id="Oval-3" cx="10" cy="50" r="2"></circle>
                    <circle id="Oval-3" cx="18" cy="66" r="2"></circle>
                    <circle id="Oval-3" cx="18" cy="98" r="2"></circle>
                    <circle id="Oval-3" cx="18" cy="138" r="2"></circle>
                    <circle id="Oval-3" cx="26" cy="74" r="2"></circle>
                    <circle id="Oval-3" cx="26" cy="90" r="2"></circle>
                    <circle id="Oval-3" cx="18" cy="50" r="2"></circle>
                    <circle id="Oval-3" cx="26" cy="66" r="2"></circle>
                    <circle id="Oval-3" cx="26" cy="98" r="2"></circle>
                    <circle id="Oval-3" cx="26" cy="138" r="2"></circle>
                    <circle id="Oval-3" cx="26" cy="50" r="2"></circle>
                    <circle id="Oval-3" cx="34" cy="138" r="2"></circle>
                    <circle id="Oval-3" cx="34" cy="50" r="2"></circle>
                    <circle id="Oval-3" cx="90" cy="138" r="2"></circle>
                    <circle id="Oval-3" cx="82" cy="74" r="2"></circle>
                    <circle id="Oval-3" cx="82" cy="42" r="2"></circle>
                    <circle id="Oval-3" cx="82" cy="90" r="2"></circle>
                    <circle id="Oval-3" cx="82" cy="26" r="2"></circle>
                    <circle id="Oval-3" cx="82" cy="66" r="2"></circle>
                    <circle id="Oval-3" cx="82" cy="98" r="2"></circle>
                    <circle id="Oval-3" cx="82" cy="50" r="2"></circle>
                    <circle id="Oval-3" cx="82" cy="18" r="2"></circle>
                    <circle id="Oval-3" cx="90" cy="2" r="2"></circle>
                    <circle id="Oval-3" cx="106" cy="138" r="2"></circle>
                    <circle id="Oval-3" cx="106" cy="74" r="2"></circle>
                    <circle id="Oval-3" cx="106" cy="106" r="2"></circle>
                    <circle id="Oval-3" cx="106" cy="42" r="2"></circle>
                    <circle id="Oval-3" cx="106" cy="122" r="2"></circle>
                    <circle id="Oval-3" cx="106" cy="58" r="2"></circle>
                    <circle id="Oval-3" cx="106" cy="90" r="2"></circle>
                    <circle id="Oval-3" cx="106" cy="26" r="2"></circle>
                    <circle id="Oval-3" cx="106" cy="10" r="2"></circle>
                    <circle id="Oval-3" cx="106" cy="130" r="2"></circle>
                    <circle id="Oval-3" cx="106" cy="66" r="2"></circle>
                    <circle id="Oval-3" cx="106" cy="98" r="2"></circle>
                    <circle id="Oval-3" cx="106" cy="34" r="2"></circle>
                    <circle id="Oval-3" cx="106" cy="114" r="2"></circle>
                    <circle id="Oval-3" cx="106" cy="50" r="2"></circle>
                    <circle id="Oval-3" cx="106" cy="82" r="2"></circle>
                    <circle id="Oval-3" cx="106" cy="18" r="2"></circle>
                    <circle id="Oval-3" cx="106" cy="2" r="2"></circle>
                    <circle id="Oval-3" cx="82" cy="138" r="2"></circle>
                    <circle id="Oval-3" cx="74" cy="2" r="2"></circle>
                    <circle id="Oval-3" cx="82" cy="2" r="2"></circle>
                    <circle id="Oval-3" cx="98" cy="138" r="2"></circle>
                    <circle id="Oval-3" cx="90" cy="74" r="2"></circle>
                    <circle id="Oval-3" cx="90" cy="42" r="2"></circle>
                    <circle id="Oval-3" cx="90" cy="90" r="2"></circle>
                    <circle id="Oval-3" cx="90" cy="26" r="2"></circle>
                    <circle id="Oval-3" cx="90" cy="66" r="2"></circle>
                    <circle id="Oval-3" cx="90" cy="98" r="2"></circle>
                    <circle id="Oval-3" cx="90" cy="50" r="2"></circle>
                    <circle id="Oval-3" cx="90" cy="18" r="2"></circle>
                    <circle id="Oval-3" cx="98" cy="2" r="2"></circle>
                    <circle id="Oval-3" cx="74" cy="138" r="2"></circle>
                    <circle id="Oval-3" cx="66" cy="74" r="2"></circle>
                    <circle id="Oval-3" cx="66" cy="42" r="2"></circle>
                    <circle id="Oval-3" cx="66" cy="90" r="2"></circle>
                    <circle id="Oval-3" cx="66" cy="26" r="2"></circle>
                    <circle id="Oval-3" cx="66" cy="66" r="2"></circle>
                    <circle id="Oval-3" cx="66" cy="98" r="2"></circle>
                    <circle id="Oval-3" cx="66" cy="50" r="2"></circle>
                    <circle id="Oval-3" cx="66" cy="18" r="2"></circle>
                    <circle id="Oval-3" cx="66" cy="2" r="2"></circle>
                    <circle id="Oval-3" cx="66" cy="138" r="2"></circle>
                    <circle id="Oval-3" cx="58" cy="74" r="2"></circle>
                    <circle id="Oval-3" cx="58" cy="42" r="2"></circle>
                    <circle id="Oval-3" cx="58" cy="90" r="2"></circle>
                    <circle id="Oval-3" cx="58" cy="26" r="2"></circle>
                    <circle id="Oval-3" cx="58" cy="66" r="2"></circle>
                    <circle id="Oval-3" cx="58" cy="98" r="2"></circle>
                    <circle id="Oval-3" cx="58" cy="50" r="2"></circle>
                    <circle id="Oval-3" cx="58" cy="18" r="2"></circle>
                    <circle id="Oval-3" cx="58" cy="2" r="2"></circle>
                    <circle id="Oval-3" cx="58" cy="138" r="2"></circle>
                    <circle id="Oval-3" cx="50" cy="2" r="2"></circle>
                    <circle id="Oval-3" cx="50" cy="138" r="2"></circle>
                    <circle id="Oval-3" cx="42" cy="74" r="2"></circle>
                    <circle id="Oval-3" cx="42" cy="106" r="2"></circle>
                    <circle id="Oval-3" cx="42" cy="42" r="2"></circle>
                    <circle id="Oval-3" cx="42" cy="122" r="2"></circle>
                    <circle id="Oval-3" cx="42" cy="58" r="2"></circle>
                    <circle id="Oval-3" cx="42" cy="90" r="2"></circle>
                    <circle id="Oval-3" cx="42" cy="26" r="2"></circle>
                    <circle id="Oval-3" cx="42" cy="10" r="2"></circle>
                    <circle id="Oval-3" cx="42" cy="130" r="2"></circle>
                    <circle id="Oval-3" cx="42" cy="66" r="2"></circle>
                    <circle id="Oval-3" cx="42" cy="98" r="2"></circle>
                    <circle id="Oval-3" cx="42" cy="34" r="2"></circle>
                    <circle id="Oval-3" cx="42" cy="114" r="2"></circle>
                    <circle id="Oval-3" cx="42" cy="50" r="2"></circle>
                    <circle id="Oval-3" cx="42" cy="82" r="2"></circle>
                    <circle id="Oval-3" cx="42" cy="18" r="2"></circle>
                    <circle id="Oval-3" cx="42" cy="2" r="2"></circle>
                    <circle id="Oval-3" cx="42" cy="138" r="2"></circle>
                </g>
            </g>
        </g>
    </g>
</svg>